<svg width="328" height="160" viewBox="0 0 328 160" fill="none" xmlns="http://www.w3.org/2000/svg">
<path d="M164.5 109.58C188.419 130.553 236.983 144.906 293 144.906V15.0948C236.983 15.0948 188.42 29.4469 164.5 50.4205C140.581 29.4466 92.0173 15.0944 36 15.0944L36 144.905C92.0169 144.905 140.58 130.553 164.5 109.58Z" fill="#212121"/>
<path d="M73.8736 68.48V63H101.454V68.44L86.2936 93H78.7336L94.1336 68.48H73.8736ZM103.271 93.36C102.538 93.36 101.871 93.1867 101.271 92.84C100.671 92.4933 100.198 92.02 99.8514 91.42C99.5047 90.82 99.3314 90.1533 99.3314 89.42C99.3314 88.7 99.5047 88.04 99.8514 87.44C100.198 86.8267 100.671 86.3467 101.271 86C101.871 85.6533 102.538 85.48 103.271 85.48C104.005 85.48 104.671 85.6533 105.271 86C105.871 86.3467 106.345 86.8267 106.691 87.44C107.038 88.04 107.211 88.7 107.211 89.42C107.211 90.1533 107.038 90.82 106.691 91.42C106.345 92.02 105.871 92.4933 105.271 92.84C104.671 93.1867 104.005 93.36 103.271 93.36ZM132.683 77.46C134.963 77.8733 136.717 78.6667 137.943 79.84C139.183 81 139.803 82.4933 139.803 84.32C139.803 86.1333 139.23 87.74 138.083 89.14C136.95 90.54 135.29 91.6333 133.103 92.42C130.93 93.2067 128.33 93.6 125.303 93.6C122.317 93.6 119.697 93.18 117.443 92.34C115.203 91.4867 113.45 90.2867 112.183 88.74C110.917 87.18 110.237 85.36 110.143 83.28H116.923C117.15 84.9067 117.957 86.1467 119.343 87C120.743 87.84 122.73 88.26 125.303 88.26C127.783 88.26 129.67 87.8733 130.963 87.1C132.257 86.3267 132.903 85.2333 132.903 83.82C132.903 82.98 132.677 82.2867 132.223 81.74C131.783 81.1933 131.05 80.78 130.023 80.5C129.01 80.22 127.637 80.08 125.903 80.08H120.603V75.32H125.903C128.103 75.32 129.717 74.9933 130.743 74.34C131.77 73.6867 132.283 72.7733 132.283 71.6C132.283 70.36 131.717 69.4067 130.583 68.74C129.463 68.0733 127.783 67.74 125.543 67.74C123.25 67.74 121.443 68.1467 120.123 68.96C118.803 69.7733 118.01 70.94 117.743 72.46H110.943C111.103 70.5667 111.79 68.86 113.003 67.34C114.217 65.8067 115.917 64.6 118.103 63.72C120.303 62.84 122.903 62.4 125.903 62.4C128.557 62.4 130.883 62.7467 132.883 63.44C134.883 64.12 136.423 65.0867 137.503 66.34C138.597 67.5933 139.143 69.04 139.143 70.68C139.143 72.2933 138.597 73.7 137.503 74.9C136.423 76.0867 134.817 76.94 132.683 77.46ZM171.708 87.02L178.828 70.26H188.828V93H182.568V75.66L174.808 93H168.528L160.768 75.72V93H154.488V70.26H164.488L171.708 87.02ZM221.343 70.26V93H214.643V75.3H204.203C204.377 77.6867 204.463 79.5867 204.463 81C204.463 83.9333 204.177 86.3133 203.603 88.14C203.043 89.9533 202.163 91.2933 200.963 92.16C199.777 93.0267 198.223 93.46 196.303 93.46C194.65 93.46 193.163 93.0933 191.843 92.36V87.52C192.817 87.9067 193.717 88.1 194.543 88.1C195.463 88.1 196.203 87.8267 196.763 87.28C197.337 86.7333 197.75 85.88 198.003 84.72C198.27 83.5467 198.403 82 198.403 80.08C198.403 77.4533 198.203 74.18 197.803 70.26H221.343ZM245.424 78.9V70.26H252.084V93H245.424V83.94H232.984V93H226.324V70.26H232.984V78.9H245.424Z" fill="#FEFEFE"/>
</svg>
