<svg width="24" height="24" viewBox="0 0 24 24" fill="none" xmlns="http://www.w3.org/2000/svg">
<path fill-rule="evenodd" clip-rule="evenodd" d="M10.509 8.37626C9.83024 5.92381 7.38659 4.40906 4.9684 5.21564C3.3929 5.74111 2.43384 6.72145 2.1159 8.02904C1.82039 9.24444 2.1284 10.556 2.60677 11.7151C3.57009 14.0493 5.4767 16.3618 6.5562 17.4421C7.6108 18.4975 9.91998 20.4124 12.2585 21.3845C13.4197 21.8672 14.7361 22.1806 15.9571 21.8858C17.2712 21.5685 18.2565 20.6045 18.7848 19.0179C19.5902 16.5999 18.0782 14.1543 15.6263 13.4747L15.6263 13.4747C13.9503 13.0101 12.1927 13.4531 10.9932 14.5296C10.7117 14.3116 10.4409 14.0735 10.1827 13.815C9.92317 13.5553 9.68413 13.2829 9.46537 12.9996C10.5335 11.7997 10.9715 10.0474 10.509 8.37627L10.509 8.37626Z" fill="#A6A6A6"/>
</svg>
