<svg width="178" height="88" viewBox="0 0 178 88" fill="none" xmlns="http://www.w3.org/2000/svg">
<rect width="178" height="88" rx="16" fill="#E52E33"/>
<path d="M36.58 54.52H54.78V60H25.98V55.2L38.8 47.7C41 46.3933 42.68 45.3067 43.84 44.44C45.0133 43.5733 45.8533 42.76 46.36 42C46.8667 41.24 47.12 40.4133 47.12 39.52C47.12 38.5867 46.86 37.76 46.34 37.04C45.8333 36.32 45.0667 35.76 44.04 35.36C43.0267 34.9467 41.7867 34.74 40.32 34.74C37.7733 34.74 35.8467 35.28 34.54 36.36C33.2333 37.4267 32.4867 38.8267 32.3 40.56H25.52C25.68 38.32 26.42 36.36 27.74 34.68C29.06 32.9867 30.8267 31.6867 33.04 30.78C35.2667 29.86 37.7733 29.4 40.56 29.4C43.1867 29.4 45.5067 29.8133 47.52 30.64C49.5467 31.4533 51.1133 32.6 52.22 34.08C53.34 35.5467 53.9 37.24 53.9 39.16C53.9 40.6667 53.5133 42.06 52.74 43.34C51.98 44.62 50.7667 45.9 49.1 47.18C47.4333 48.4467 45.18 49.84 42.34 51.36L36.58 54.52ZM74.6609 60.6C71.3543 60.6 68.4676 59.9533 66.0009 58.66C63.5343 57.3667 61.6343 55.5467 60.3009 53.2C58.9676 50.84 58.3009 48.1067 58.3009 45C58.3009 41.8933 58.9676 39.1667 60.3009 36.82C61.6343 34.46 63.5343 32.6333 66.0009 31.34C68.4676 30.0467 71.3543 29.4 74.6609 29.4C77.9543 29.4 80.8276 30.0467 83.2809 31.34C85.7476 32.6333 87.6476 34.46 88.9809 36.82C90.3143 39.1667 90.9809 41.8933 90.9809 45C90.9809 48.1067 90.3143 50.84 88.9809 53.2C87.6476 55.5467 85.7476 57.3667 83.2809 58.66C80.8276 59.9533 77.9543 60.6 74.6609 60.6ZM74.6609 55.06C76.6476 55.06 78.3543 54.6667 79.7809 53.88C81.2076 53.08 82.2943 51.9267 83.0409 50.42C83.8009 48.9133 84.1809 47.1067 84.1809 45C84.1809 42.8933 83.8009 41.0867 83.0409 39.58C82.2943 38.0733 81.2076 36.9267 79.7809 36.14C78.3543 35.34 76.6476 34.94 74.6609 34.94C72.6476 34.94 70.9209 35.3333 69.4809 36.12C68.0543 36.9067 66.9609 38.0533 66.2009 39.56C65.4543 41.0667 65.0809 42.88 65.0809 45C65.0809 47.12 65.4543 48.9333 66.2009 50.44C66.9609 51.9467 68.0543 53.0933 69.4809 53.88C70.9209 54.6667 72.6476 55.06 74.6609 55.06ZM111.028 60.6C107.721 60.6 104.835 59.9533 102.368 58.66C99.9015 57.3667 98.0015 55.5467 96.6681 53.2C95.3348 50.84 94.6681 48.1067 94.6681 45C94.6681 41.8933 95.3348 39.1667 96.6681 36.82C98.0015 34.46 99.9015 32.6333 102.368 31.34C104.835 30.0467 107.721 29.4 111.028 29.4C114.321 29.4 117.195 30.0467 119.648 31.34C122.115 32.6333 124.015 34.46 125.348 36.82C126.681 39.1667 127.348 41.8933 127.348 45C127.348 48.1067 126.681 50.84 125.348 53.2C124.015 55.5467 122.115 57.3667 119.648 58.66C117.195 59.9533 114.321 60.6 111.028 60.6ZM111.028 55.06C113.015 55.06 114.721 54.6667 116.148 53.88C117.575 53.08 118.661 51.9267 119.408 50.42C120.168 48.9133 120.548 47.1067 120.548 45C120.548 42.8933 120.168 41.0867 119.408 39.58C118.661 38.0733 117.575 36.9267 116.148 36.14C114.721 35.34 113.015 34.94 111.028 34.94C109.015 34.94 107.288 35.3333 105.848 36.12C104.421 36.9067 103.328 38.0533 102.568 39.56C101.821 41.0667 101.448 42.88 101.448 45C101.448 47.12 101.821 48.9333 102.568 50.44C103.328 51.9467 104.421 53.0933 105.848 53.88C107.288 54.6667 109.015 55.06 111.028 55.06ZM144.075 43.36H152.795V48.32H144.075V57.04H139.115V48.32H130.395V43.36H139.115V34.64H144.075V43.36Z" fill="#FEFEFE"/>
</svg>
