<svg width="160" height="160" viewBox="0 0 160 160" fill="none" xmlns="http://www.w3.org/2000/svg">
<path fill-rule="evenodd" clip-rule="evenodd" d="M95.7274 9.23945C88.5932 -3.07981 71.4068 -3.07982 64.2726 9.23945L46.9523 39.1482L14.2282 47.0243C0.749288 50.2684 -4.56164 67.2544 4.50812 78.1123L26.5277 104.473L23.6234 139.249C22.4271 153.574 36.3312 164.072 49.0708 158.463L80 144.846L110.929 158.463C123.669 164.072 137.573 153.574 136.377 139.249L133.472 104.473L155.492 78.1123C164.562 67.2545 159.251 50.2684 145.772 47.0243L113.048 39.1482L95.7274 9.23945Z" fill="#212121"/>
<path d="M53.8538 83.08C56.3871 83.08 58.5804 83.5067 60.4338 84.36C62.2871 85.2133 63.7071 86.4 64.6938 87.92C65.6804 89.4267 66.1738 91.1467 66.1738 93.08C66.1738 95.12 65.6004 96.94 64.4538 98.54C63.3071 100.127 61.6671 101.367 59.5338 102.26C57.4004 103.153 54.9004 103.6 52.0338 103.6C49.2338 103.6 46.7604 103.187 44.6138 102.36C42.4671 101.52 40.7738 100.373 39.5338 98.92C38.2938 97.4667 37.5671 95.8267 37.3538 94H44.1338C44.4404 95.32 45.2804 96.36 46.6537 97.12C48.0404 97.88 49.8338 98.26 52.0338 98.26C53.5271 98.26 54.8271 98.0533 55.9338 97.64C57.0404 97.2133 57.8871 96.6067 58.4738 95.82C59.0738 95.0333 59.3738 94.1133 59.3738 93.06C59.3738 92.02 59.1071 91.1133 58.5738 90.34C58.0538 89.5667 57.2671 88.9667 56.2138 88.54C55.1738 88.1133 53.9004 87.9 52.3938 87.9C50.5938 87.9 49.0271 88.1867 47.6938 88.76C46.3604 89.32 45.2604 90.0333 44.3938 90.9H38.6138L41.0938 73H63.7938V78.22H45.7338L44.5938 86.08C45.7138 85.16 47.0471 84.4333 48.5938 83.9C50.1538 83.3533 51.9071 83.08 53.8538 83.08ZM85.9344 103.6C82.6277 103.6 79.741 102.953 77.2744 101.66C74.8077 100.367 72.9077 98.5467 71.5744 96.2C70.241 93.84 69.5744 91.1067 69.5744 88C69.5744 84.8933 70.241 82.1667 71.5744 79.82C72.9077 77.46 74.8077 75.6333 77.2744 74.34C79.741 73.0467 82.6277 72.4 85.9344 72.4C89.2277 72.4 92.101 73.0467 94.5544 74.34C97.021 75.6333 98.921 77.46 100.254 79.82C101.588 82.1667 102.254 84.8933 102.254 88C102.254 91.1067 101.588 93.84 100.254 96.2C98.921 98.5467 97.021 100.367 94.5544 101.66C92.101 102.953 89.2277 103.6 85.9344 103.6ZM85.9344 98.06C87.921 98.06 89.6277 97.6667 91.0544 96.88C92.481 96.08 93.5677 94.9267 94.3144 93.42C95.0744 91.9133 95.4544 90.1067 95.4544 88C95.4544 85.8933 95.0744 84.0867 94.3144 82.58C93.5677 81.0733 92.481 79.9267 91.0544 79.14C89.6277 78.34 87.921 77.94 85.9344 77.94C83.921 77.94 82.1944 78.3333 80.7544 79.12C79.3277 79.9067 78.2344 81.0533 77.4744 82.56C76.7277 84.0667 76.3544 85.88 76.3544 88C76.3544 90.12 76.7277 91.9333 77.4744 93.44C78.2344 94.9467 79.3277 96.0933 80.7544 96.88C82.1944 97.6667 83.921 98.06 85.9344 98.06ZM118.982 86.36H127.702V91.32H118.982V100.04H114.022V91.32H105.302V86.36H114.022V77.64H118.982V86.36Z" fill="#FEFEFE"/>
</svg>
