<svg width="160" height="160" viewBox="0 0 160 160" fill="none" xmlns="http://www.w3.org/2000/svg">
<g clip-path="url(#clip0_256_1525)">
<path fill-rule="evenodd" clip-rule="evenodd" d="M101.371 8.15699C89.1993 -2.71899 70.8007 -2.719 58.6289 8.15699L56.691 9.88861C53.9824 12.3089 50.5324 13.7379 46.9057 13.9418L44.3109 14.0877C28.0137 15.004 15.004 28.0137 14.0877 44.3109L13.9418 46.9057C13.7379 50.5324 12.3089 53.9824 9.88861 56.691L8.15698 58.6289C-2.71899 70.8007 -2.719 89.1993 8.15699 101.371L9.88861 103.309C12.3089 106.018 13.7379 109.468 13.9418 113.094L14.0877 115.689C15.004 131.986 28.0137 144.996 44.3109 145.912L46.9057 146.058C50.5324 146.262 53.9824 147.691 56.691 150.111L58.6289 151.843C70.8007 162.719 89.1993 162.719 101.371 151.843L103.309 150.111C106.018 147.691 109.468 146.262 113.094 146.058L115.689 145.912C131.986 144.996 144.996 131.986 145.912 115.689L146.058 113.094C146.262 109.468 147.691 106.018 150.111 103.309L151.843 101.371C162.719 89.1993 162.719 70.8007 151.843 58.6289L150.111 56.691C147.691 53.9824 146.262 50.5324 146.058 46.9057L145.912 44.3109C144.996 28.0137 131.986 15.004 115.689 14.0877L113.094 13.9418C109.468 13.7379 106.018 12.3089 103.309 9.88861L101.371 8.15699Z" fill="#E52E33"/>
<path d="M48.7636 90.52H66.9636V96H38.1636V91.2L50.9836 83.7C53.1836 82.3933 54.8636 81.3067 56.0236 80.44C57.1969 79.5733 58.0369 78.76 58.5436 78C59.0503 77.24 59.3036 76.4133 59.3036 75.52C59.3036 74.5867 59.0436 73.76 58.5236 73.04C58.0169 72.32 57.2503 71.76 56.2236 71.36C55.2103 70.9467 53.9703 70.74 52.5036 70.74C49.9569 70.74 48.0303 71.28 46.7236 72.36C45.4169 73.4267 44.6703 74.8267 44.4836 76.56H37.7036C37.8636 74.32 38.6036 72.36 39.9236 70.68C41.2436 68.9867 43.0103 67.6867 45.2236 66.78C47.4503 65.86 49.9569 65.4 52.7436 65.4C55.3703 65.4 57.6903 65.8133 59.7036 66.64C61.7303 67.4533 63.2969 68.6 64.4036 70.08C65.5236 71.5467 66.0836 73.24 66.0836 75.16C66.0836 76.6667 65.6969 78.06 64.9236 79.34C64.1636 80.62 62.9503 81.9 61.2836 83.18C59.6169 84.4467 57.3636 85.84 54.5236 87.36L48.7636 90.52ZM86.8445 96.6C83.5379 96.6 80.6512 95.9533 78.1845 94.66C75.7179 93.3667 73.8179 91.5467 72.4845 89.2C71.1512 86.84 70.4845 84.1067 70.4845 81C70.4845 77.8933 71.1512 75.1667 72.4845 72.82C73.8179 70.46 75.7179 68.6333 78.1845 67.34C80.6512 66.0467 83.5379 65.4 86.8445 65.4C90.1379 65.4 93.0112 66.0467 95.4645 67.34C97.9312 68.6333 99.8312 70.46 101.165 72.82C102.498 75.1667 103.165 77.8933 103.165 81C103.165 84.1067 102.498 86.84 101.165 89.2C99.8312 91.5467 97.9312 93.3667 95.4645 94.66C93.0112 95.9533 90.1379 96.6 86.8445 96.6ZM86.8445 91.06C88.8312 91.06 90.5379 90.6667 91.9645 89.88C93.3912 89.08 94.4779 87.9267 95.2245 86.42C95.9845 84.9133 96.3645 83.1067 96.3645 81C96.3645 78.8933 95.9845 77.0867 95.2245 75.58C94.4779 74.0733 93.3912 72.9267 91.9645 72.14C90.5379 71.34 88.8312 70.94 86.8445 70.94C84.8312 70.94 83.1045 71.3333 81.6645 72.12C80.2379 72.9067 79.1445 74.0533 78.3845 75.56C77.6379 77.0667 77.2645 78.88 77.2645 81C77.2645 83.12 77.6379 84.9333 78.3845 86.44C79.1445 87.9467 80.2379 89.0933 81.6645 89.88C83.1045 90.6667 84.8312 91.06 86.8445 91.06ZM119.892 79.36H128.612V84.32H119.892V93.04H114.932V84.32H106.212V79.36H114.932V70.64H119.892V79.36Z" fill="#FEFEFE"/>
</g>
<defs>
<clipPath id="clip0_256_1525">
<rect width="160" height="160" rx="16" fill="white"/>
</clipPath>
</defs>
</svg>
